#!OML:ASF X:\für Bonn\!DataBase\2005_08_12_Daniel\c3d\Daniel.ASF
:FULLY-SPECIFIED
:DEGREES
49
root -0.303864 17.3784 1.04366 34.0897 -76.3471 -66.9489
lowerback 54.9695 -16.1054 -2.60182
upperback 12.6975 -23.8882 -2.14101
thorax -5.66335 -12.711 8.66953
lowerneck 1.13759 10.3901 -0.717764
upperneck 7.45416 14.014 -7.51373
head 2.74993 6.62392 -1.97664
rclavicle -1.27222e-013 1.74931e-014
rhumerus -64.0547 4.94415 -76.1562
rradius 58.622
rwrist 3.97795
rhand -42.4527 47.5202
rfingers 7.12502
rthumb -15.3313 18.1086
lclavicle -1.27222e-013 1.74931e-014
lhumerus 36.5975 -0.789776 74.6146
lradius 125.423
lwrist 24.1686
lhand -22.9391 -21.3549
lfingers 7.12502
lthumb 3.50187 8.59608
rfemur -83.621 -11.1955 36.8863
rtibia 121.827
rfoot -2.46289 4.7174
rtoes -13.0005
lfemur 20.9012 -11.754 -15.5396
ltibia 25.8547
lfoot -18.3121 5.97844
ltoes 6.49377
50
root -0.301297 17.3663 1.05593 35.64 -76.5888 -68.274
lowerback 54.6196 -16.0212 -2.46189
upperback 12.6633 -23.7012 -2.16081
thorax -5.73394 -12.5997 8.52379
lowerneck 1.02445 10.2985 -0.857246
upperneck 7.5107 13.8923 -7.31846
head 2.75481 6.56156 -1.88858
rclavicle -1.04163e-013 -6.83819e-014
rhumerus -63.6246 5.18774 -76.4936
rradius 58.9103
rwrist 3.52321
rhand -42.1703 47.5475
rfingers 7.12502
rthumb -15.0592 18.1153
lclavicle -1.04163e-013 -6.83819e-014
lhumerus 37.547 -0.75403 73.9996
lradius 125.243
lwrist 24.4949
lhand -23.4245 -21.4643
lfingers 7.12502
lthumb 3.03313 8.49385
rfemur -82.7654 -11.5939 36.6288
rtibia 121.532
rfoot -2.47853 4.80244
rtoes -13.6765
lfemur 20.4891 -11.6807 -15.621
ltibia 26.341
lfoot -18.7037 6.25506
ltoes 6.53251
51
root -0.299418 17.3543 1.0673 37.3105 -76.8197 -69.6801
lowerback 54.1913 -15.9258 -2.29719
upperback 12.6424 -23.4859 -2.17456
thorax -5.7866 -12.4764 8.35541
lowerneck 0.902727 10.1936 -0.982582
upperneck 7.56366 13.7535 -7.10643
head 2.7595 6.49224 -1.79774
rclavicle 1.47101e-013 -8.42847e-014
rhumerus -63.1496 5.42276 -76.8673
rradius 59.348
rwrist 3.08902
rhand -41.9644 47.3093
rfingers 7.12502
rthumb -14.8608 17.8623
lclavicle 1.47101e-013 -8.42847e-014
lhumerus 38.4693 -0.66844 73.3686
lradius 125.214
lwrist 24.9528
lhand -23.6133 -21.4007
lfingers 7.12502
lthumb 2.85082 8.56
rfemur -81.7757 -11.9931 36.2808
rtibia 121.179
rfoot -2.5103 4.89662
rtoes -14.3631
lfemur 20.0373 -11.6396 -15.7114
ltibia 26.8307
lfoot -19.0979 6.58168
ltoes 6.53292
52
root -0.297415 17.3455 1.07852 39.171 -77.0456 -71.2085
lowerback 53.6778 -15.8323 -2.09654
upperback 12.5961 -23.2456 -2.17654
thorax -5.86306 -12.3344 8.17491
lowerneck 0.790007 10.0814 -1.12892
upperneck 7.64011 13.6046 -6.89238
head 2.769 6.41614 -1.70352
rclavicle -7.95139e-015 1.1291e-013
rhumerus -62.6781 5.70207 -77.217
rradius 59.8765
rwrist 2.75817
rhand -41.7991 47.0963
rfingers 7.12502
rthumb -14.7016 17.6376
lclavicle -7.95139e-015 1.1291e-013
lhumerus 39.3037 -0.57362 72.6919
lradius 125.366
lwrist 25.3415
lhand -23.7043 -20.9758
lfingers 7.12502
lthumb 2.76294 8.98609
rfemur -80.6913 -12.3394 35.8503
rtibia 120.744
rfoot -2.52811 5.03429
rtoes -14.9866
lfemur 19.5192 -11.6106 -15.7931
ltibia 27.3256
lfoot -19.5092 6.93557
ltoes 6.52987
53
root -0.296548 17.3389 1.08818 40.988 -77.2565 -72.6325
lowerback 53.0682 -15.7167 -1.92471
upperback 12.5678 -22.9914 -2.15249
thorax -5.89062 -12.1934 8.01027
lowerneck 0.67145 9.96571 -1.21614
upperneck 7.71333 13.4545 -6.73127
head 2.7884 6.3399 -1.63536
rclavicle -2.54444e-014 8.5875e-014
rhumerus -62.1045 5.98663 -77.541
rradius 60.4249
rwrist 2.6165
rhand -41.778 46.6336
rfingers 7.12502
rthumb -14.6813 17.1734
lclavicle -2.54444e-014 8.5875e-014
lhumerus 40.0657 -0.39559 72.0829
lradius 125.613
lwrist 25.8183
lhand -23.5882 -20.4499
lfingers 7.12502
lthumb 2.87504 9.51042
rfemur -79.5129 -12.6975 35.3315
rtibia 120.268
rfoot -2.56102 5.20906
rtoes -15.6043
lfemur 18.9391 -11.6163 -15.888
ltibia 27.8142
lfoot -19.903 7.30141
ltoes 6.59732
54
root -0.295856 17.331 1.09733 43.0124 -77.4471 -74.2236
lowerback 52.4199 -15.5894 -1.74278
upperback 12.5101 -22.7124 -2.12068
thorax -5.94478 -12.0345 7.84134
lowerneck 0.680614 9.84323 -1.21216
upperneck 7.76707 13.2877 -6.60308
head 2.78817 6.26 -1.59977
rclavicle -6.99722e-014 1.06549e-013
rhumerus -61.5539 6.23902 -77.8132
rradius 61.022
rwrist 2.68461
rhand -41.7896 46.2308
rfingers 7.12502
rthumb -14.6924 16.7714
lclavicle -6.99722e-014 1.06549e-013
lhumerus 40.6198 -0.22276 71.5887
lradius 125.847
lwrist 26.2254
lhand -23.3637 -19.9582
lfingers 7.12502
lthumb 3.09188 9.99909
rfemur -78.1813 -12.975 34.7521
rtibia 119.727
rfoot -2.58005 5.38291
rtoes -15.7826
lfemur 18.3198 -11.638 -15.9549
ltibia 28.2886
lfoot -20.3132 7.68204
ltoes 6.61215
55
root -0.297676 17.3253 1.10485 45.0517 -77.6422 -75.7802
lowerback 51.6855 -15.4439 -1.58088
upperback 12.4485 -22.4181 -2.06873
thorax -5.9779 -11.8704 7.68384
lowerneck 0.65599 9.73226 -1.21438
upperneck 7.8599 13.1406 -6.49835
head 2.80975 6.18624 -1.56748
rclavicle 3.73715e-014 4.77083e-015
rhumerus -60.9386 6.54308 -78.0201
rradius 61.5446
rwrist 2.98932
rhand -41.9058 45.9212
rfingers 7.12502
rthumb -14.8044 16.47
lclavicle 3.73715e-014 4.77083e-015
lhumerus 41.0691 -0.0547411 71.2166
lradius 125.984
lwrist 26.6212
lhand -23.0127 -19.5575
lfingers 7.12502
lthumb 3.43086 10.3946
rfemur -76.7545 -13.2236 34.1011
rtibia 119.112
rfoot -2.5495 5.54173
rtoes -15.632
lfemur 17.6843 -11.6649 -16.0404
ltibia 28.7163
lfoot -20.7054 8.09503
ltoes 6.57693
56
root -0.300943 17.3223 1.11198 47.2173 -77.8078 -77.4234
lowerback 50.904 -15.3265 -1.34171
upperback 12.3525 -22.1126 -2.00527
thorax -6.0509 -11.6921 7.50549
lowerneck 0.587606 9.60398 -1.26182
upperneck 7.99489 12.9724 -6.35465
head 2.84633 6.09929 -1.51327
rclavicle -7.87187e-014 -7.95139e-015
rhumerus -60.2179 6.89595 -78.1928
rradius 61.8715
rwrist 3.32177
rhand -42.0019 45.7282
rfingers 7.12502
rthumb -14.8969 16.2839
lclavicle -7.87187e-014 -7.95139e-015
lhumerus 41.4236 0.10517 70.8623
lradius 126.131
lwrist 27.006
lhand -22.71 -19.2586
lfingers 7.12502
lthumb 3.72317 10.6886
rfemur -75.2388 -13.4251 33.4302
rtibia 118.393
rfoot -2.36285 5.61679
rtoes -14.8225
lfemur 17.0539 -11.701 -16.0911
ltibia 29.0475
lfoot -21.0527 8.51639
ltoes 6.52433
57
root -0.306549 17.3255 1.11696 49.4292 -77.9663 -79.1172
lowerback 50.0837 -15.2122 -1.08082
upperback 12.2503 -21.8023 -1.95687
thorax -6.12996 -11.5086 7.29706
lowerneck 0.449081 9.47378 -1.27296
upperneck 8.20591 12.8085 -6.21908
head 2.92548 6.01084 -1.46231
rclavicle -6.04305e-014 -6.36111e-015
rhumerus -59.4078 7.27596 -78.3206
rradius 62.035
rwrist 3.76537
rhand -42.168 45.6517
rfingers 7.12502
rthumb -15.057 16.2193
lclavicle -6.04305e-014 -6.36111e-015
lhumerus 41.693 0.231475 70.5345
lradius 126.246
lwrist 27.3133
lhand -22.4314 -18.9987
lfingers 7.12502
lthumb 3.99222 10.9436
rfemur -73.5727 -13.5726 32.7168
rtibia 117.516
rfoot -1.99167 5.55178
rtoes -13.2819
lfemur 16.5101 -11.7605 -16.1515
ltibia 29.2603
lfoot -21.3752 8.97209
ltoes 6.49666
58
root -0.312765 17.3368 1.12182 51.7335 -78.1304 -80.8391
lowerback 49.2001 -15.0797 -0.842799
upperback 12.1217 -21.4773 -1.87143
thorax -6.20422 -11.3187 7.12131
lowerneck 0.278873 9.35503 -1.28026
upperneck 8.4328 12.664 -6.11934
head 3.02035 5.92979 -1.4211
rclavicle 3.02153e-014 1.43125e-014
rhumerus -58.4702 7.67682 -78.3903
rradius 62.0491
rwrist 4.28377
rhand -42.337 45.7749
rfingers 7.12502
rthumb -15.2198 16.3548
lclavicle 3.02153e-014 1.43125e-014
lhumerus 41.8864 0.347399 70.2547
lradius 126.339
lwrist 27.5212
lhand -22.1742 -18.7998
lfingers 7.12502
lthumb 4.24055 11.1377
rfemur -71.8515 -13.6243 31.9891
rtibia 116.476
rfoot -1.60354 5.31735
rtoes -12.2565
lfemur 15.96 -11.817 -16.2138
ltibia 29.3597
lfoot -21.637 9.44973
ltoes 6.54767
59
root -0.319844 17.3519 1.12483 54.2388 -78.2723 -82.7538
lowerback 47.4244 -14.894 -0.635636
upperback 12.9628 -21.1065 -2.13651
thorax -6.32237 -11.1073 7.01985
lowerneck 0.127377 9.24105 -1.224
upperneck 8.72296 12.5275 -6.06522
head 3.143 5.85006 -1.40437
rclavicle -2.50469e-014 -3.18055e-014
rhumerus -57.5124 8.0896 -78.4093
rradius 61.9866
rwrist 4.77775
rhand -42.4318 45.8446
rfingers 7.12502
rthumb -15.3111 16.4314
lclavicle -2.50469e-014 -3.18055e-014
lhumerus 41.988 0.464873 69.9861
lradius 126.413
lwrist 27.7162
lhand -21.8887 -18.5994
lfingers 7.12502
lthumb 4.51621 11.3324
rfemur -70.0041 -13.5728 31.2859
rtibia 115.284
rfoot -1.2772 4.97465
rtoes -11.5125
lfemur 15.4407 -11.8718 -16.2488
ltibia 29.3899
lfoot -21.8821 9.96915
ltoes 6.47676
60
root -0.329426 17.3653 1.12702 56.701 -78.3957 -84.6087
lowerback 46.5482 -14.7383 -0.385724
upperback 12.7418 -20.7501 -2.00212
thorax -6.41516 -10.8982 6.83533
lowerneck 0.0191998 9.1183 -1.16422
upperneck 8.97796 12.3742 -5.9935
head 3.24449 5.76566 -1.38631
rclavicle -5.1684e-014 5.88403e-014
rhumerus -56.5875 8.52367 -78.4207
rradius 61.9662
rwrist 5.03123
rhand -42.3919 45.8862
rfingers 7.12502
rthumb -15.2727 16.47
lclavicle -5.1684e-014 5.88403e-014
lhumerus 42.0146 0.53584 69.7529
lradius 126.488
lwrist 27.832
lhand -21.6217 -18.4507
lfingers 7.12502
lthumb 4.77406 11.4755
rfemur -68.0766 -13.5065 30.5945
rtibia 114.004
rfoot -1.01987 4.50935
rtoes -10.6643
lfemur 14.9164 -11.9515 -16.2833
ltibia 29.4143
lfoot -22.1463 10.4611
ltoes 6.43665
61
root -0.341822 17.3752 1.12719 59.3383 -78.4762 -86.6598
lowerback 45.7119 -14.5747 -0.161796
upperback 12.4953 -20.3961 -1.82616
thorax -6.51599 -10.6933 6.709
lowerneck -0.110631 9.02041 -1.14333
upperneck 9.24942 12.2565 -5.93883
head 3.35597 5.69552 -1.36525
rclavicle 5.52621e-014 -1.59028e-013
rhumerus -55.7054 9.10127 -78.3963
rradius 61.9867
rwrist 5.1107
rhand -42.3246 45.9143
rfingers 7.12502
rthumb -15.2078 16.4932
lclavicle 5.52621e-014 -1.59028e-013
lhumerus 41.8029 0.706172 69.6087
lradius 126.664
lwrist 27.9277
lhand -21.2757 -18.3294
lfingers 7.12502
lthumb 5.10815 11.5891
rfemur -66.0458 -13.3686 29.9632
rtibia 112.655
rfoot -0.845231 3.95066
rtoes -9.77562
lfemur 14.3831 -12.0353 -16.2788
ltibia 29.5121
lfoot -22.453 10.9597
ltoes 6.38871
